HIERARCHY
ROOT Hips
{
  OFFSET 124.075 102.079 -29.8065
  CHANNELS 6 Xposition Yposition Zposition Zrotation Xrotation Yrotation
  JOINT Spine
  {
    OFFSET 0 6.79576 0
    CHANNELS 6 Xposition Yposition Zposition Zrotation Xrotation Yrotation
    JOINT Spine1
    {
      OFFSET 0 6.79575 0
      CHANNELS 6 Xposition Yposition Zposition Zrotation Xrotation Yrotation
      JOINT Spine2
      {
        OFFSET 0 6.79576 0
        CHANNELS 6 Xposition Yposition Zposition Zrotation Xrotation Yrotation
        JOINT Spine3
        {
          OFFSET 0 6.79575 0
          CHANNELS 6 Xposition Yposition Zposition Zrotation Xrotation Yrotation
          JOINT Neck
          {
            OFFSET 6.40019e-05 14.441 4.93624e-05
            CHANNELS 6 Xposition Yposition Zposition Zrotation Xrotation Yrotation
            JOINT Head
            {
              OFFSET 0 9.17427 0
              CHANNELS 6 Xposition Yposition Zposition Zrotation Xrotation Yrotation
              End Site
              {
                OFFSET 0 17.2017 0
              }
            }
          }
          JOINT LeftShoulder
          {
            OFFSET 5.00008 17 -3.58215e-05
            CHANNELS 6 Xposition Yposition Zposition Zrotation Xrotation Yrotation
            JOINT LeftShoulder2
            {
              OFFSET 6.5 0 0
              CHANNELS 6 Xposition Yposition Zposition Zrotation Xrotation Yrotation
              JOINT LeftArm
              {
                OFFSET 6.50001 0 -0.000216613
                CHANNELS 6 Xposition Yposition Zposition Zrotation Xrotation Yrotation
                JOINT LeftForeArm
                {
                  OFFSET 0 -37.9535 -2
                  CHANNELS 6 Xposition Yposition Zposition Zrotation Xrotation Yrotation
                  JOINT LeftHand
                  {
                    OFFSET 0 -30.0465 2
                    CHANNELS 6 Xposition Yposition Zposition Zrotation Xrotation Yrotation
                    JOINT LeftHandThumb1
                    {
                      OFFSET -0.500015 -1.5 2.65001
                      CHANNELS 6 Xposition Yposition Zposition Zrotation Xrotation Yrotation
                      JOINT LeftHandThumb2
                      {
                        OFFSET 1.41001e-05 -3.8 3.7
                        CHANNELS 6 Xposition Yposition Zposition Zrotation Xrotation Yrotation
                        JOINT LeftHandThumb3
                        {
                          OFFSET 0 -3 2.7
                          CHANNELS 6 Xposition Yposition Zposition Zrotation Xrotation Yrotation
                          End Site
                          {
                            OFFSET 0 -2.3 1.8
                          }
                        }
                      }
                    }
                    JOINT LeftHandIndex
                    {
                      OFFSET -2.24751e-05 -1.9 1.60001
                      CHANNELS 6 Xposition Yposition Zposition Zrotation Xrotation Yrotation
                      JOINT LeftHandIndex1
                      {
                        OFFSET 0 -8.3 1.9
                        CHANNELS 6 Xposition Yposition Zposition Zrotation Xrotation Yrotation
                        JOINT LeftHandIndex2
                        {
                          OFFSET 0 -4.5 0
                          CHANNELS 6 Xposition Yposition Zposition Zrotation Xrotation Yrotation
                          JOINT LeftHandIndex3
                          {
                            OFFSET 1.19673e-05 -3.4 0
                            CHANNELS 6 Xposition Yposition Zposition Zrotation Xrotation Yrotation
                            End Site
                            {
                              OFFSET 0 -2.6 0
                            }
                          }
                        }
                      }
                    }
                    JOINT LeftHandMiddle
                    {
                      OFFSET -0.250006 -2.2 0.400005
                      CHANNELS 6 Xposition Yposition Zposition Zrotation Xrotation Yrotation
                      JOINT LeftHandMiddle1
                      {
                        OFFSET 0 -8.3 0.999998
                        CHANNELS 6 Xposition Yposition Zposition Zrotation Xrotation Yrotation
                        JOINT LeftHandMiddle2
                        {
                          OFFSET 0 -4.65001 0
                          CHANNELS 6 Xposition Yposition Zposition Zrotation Xrotation Yrotation
                          JOINT LeftHandMiddle3
                          {
                            OFFSET 0 -3.29999 0
                            CHANNELS 6 Xposition Yposition Zposition Zrotation Xrotation Yrotation
                            End Site
                            {
                              OFFSET 0 -2.70001 0
                            }
                          }
                        }
                      }
                    }
                    JOINT LeftHandRing
                    {
                      OFFSET -0.500003 -2.15 -0.799999
                      CHANNELS 6 Xposition Yposition Zposition Zrotation Xrotation Yrotation
                      JOINT LeftHandRing1
                      {
                        OFFSET 0 -7.75 -0.2
                        CHANNELS 6 Xposition Yposition Zposition Zrotation Xrotation Yrotation
                        JOINT LeftHandRing2
                        {
                          OFFSET 0 -3.79999 0
                          CHANNELS 6 Xposition Yposition Zposition Zrotation Xrotation Yrotation
                          JOINT LeftHandRing3
                          {
                            OFFSET 0 -3.40001 0
                            CHANNELS 6 Xposition Yposition Zposition Zrotation Xrotation Yrotation
                            End Site
                            {
                              OFFSET 0 -2.6 0
                            }
                          }
                        }
                      }
                    }
                    JOINT LeftHandPinky
                    {
                      OFFSET -0.750005 -1.75 -1.85
                      CHANNELS 6 Xposition Yposition Zposition Zrotation Xrotation Yrotation
                      JOINT LeftHandPinky1
                      {
                        OFFSET -1.33229e-05 -7.15 -0.999991
                        CHANNELS 6 Xposition Yposition Zposition Zrotation Xrotation Yrotation
                        JOINT LeftHandPinky2
                        {
                          OFFSET 1.33012e-05 -3 0
                          CHANNELS 6 Xposition Yposition Zposition Zrotation Xrotation Yrotation
                          JOINT LeftHandPinky3
                          {
                            OFFSET 0 -2.35 0
                            CHANNELS 6 Xposition Yposition Zposition Zrotation Xrotation Yrotation
                            End Site
                            {
                              OFFSET 0 -2.1 0
                            }
                          }
                        }
                      }
                    }
                  }
                }
              }
            }
          }
          JOINT RightShoulder
          {
            OFFSET -4.99994 17 0.000156589
            CHANNELS 6 Xposition Yposition Zposition Zrotation Xrotation Yrotation
            JOINT RightShoulder2
            {
              OFFSET -6.5 0 0
              CHANNELS 6 Xposition Yposition Zposition Zrotation Xrotation Yrotation
              JOINT RightArm
              {
                OFFSET -6.49999 0 -1.56544e-05
                CHANNELS 6 Xposition Yposition Zposition Zrotation Xrotation Yrotation
                JOINT RightForeArm
                {
                  OFFSET -1.13935e-05 -37.9535 -2
                  CHANNELS 6 Xposition Yposition Zposition Zrotation Xrotation Yrotation
                  JOINT RightHand
                  {
                    OFFSET 0 -30.0465 2
                    CHANNELS 6 Xposition Yposition Zposition Zrotation Xrotation Yrotation
                    JOINT RightHandThumb1
                    {
                      OFFSET 0.499989 -1.5 2.65
                      CHANNELS 6 Xposition Yposition Zposition Zrotation Xrotation Yrotation
                      JOINT RightHandThumb2
                      {
                        OFFSET 0 -3.8 3.7
                        CHANNELS 6 Xposition Yposition Zposition Zrotation Xrotation Yrotation
                        JOINT RightHandThumb3
                        {
                          OFFSET 0 -3 2.7
                          CHANNELS 6 Xposition Yposition Zposition Zrotation Xrotation Yrotation
                          End Site
                          {
                            OFFSET -1.01485e-05 -2.29999 1.8
                          }
                        }
                      }
                    }
                    JOINT RightHandIndex
                    {
                      OFFSET 0 -1.9 1.6
                      CHANNELS 6 Xposition Yposition Zposition Zrotation Xrotation Yrotation
                      JOINT RightHandIndex1
                      {
                        OFFSET 0 -8.29999 1.9
                        CHANNELS 6 Xposition Yposition Zposition Zrotation Xrotation Yrotation
                        JOINT RightHandIndex2
                        {
                          OFFSET 0 -4.5 0
                          CHANNELS 6 Xposition Yposition Zposition Zrotation Xrotation Yrotation
                          JOINT RightHandIndex3
                          {
                            OFFSET -1.07656e-05 -3.4 0
                            CHANNELS 6 Xposition Yposition Zposition Zrotation Xrotation Yrotation
                            End Site
                            {
                              OFFSET 0 -2.6 0
                            }
                          }
                        }
                      }
                    }
                    JOINT RightHandMiddle
                    {
                      OFFSET 0.250002 -2.2 0.399998
                      CHANNELS 6 Xposition Yposition Zposition Zrotation Xrotation Yrotation
                      JOINT RightHandMiddle1
                      {
                        OFFSET 0 -8.3 1
                        CHANNELS 6 Xposition Yposition Zposition Zrotation Xrotation Yrotation
                        JOINT RightHandMiddle2
                        {
                          OFFSET 0 -4.65 0
                          CHANNELS 6 Xposition Yposition Zposition Zrotation Xrotation Yrotation
                          JOINT RightHandMiddle3
                          {
                            OFFSET 0 -3.3 0
                            CHANNELS 6 Xposition Yposition Zposition Zrotation Xrotation Yrotation
                            End Site
                            {
                              OFFSET 0 -2.70001 0
                            }
                          }
                        }
                      }
                    }
                    JOINT RightHandRing
                    {
                      OFFSET 0.499998 -2.15 -0.800001
                      CHANNELS 6 Xposition Yposition Zposition Zrotation Xrotation Yrotation
                      JOINT RightHandRing1
                      {
                        OFFSET 0 -7.75 -0.200001
                        CHANNELS 6 Xposition Yposition Zposition Zrotation Xrotation Yrotation
                        JOINT RightHandRing2
                        {
                          OFFSET 0 -3.8 0
                          CHANNELS 6 Xposition Yposition Zposition Zrotation Xrotation Yrotation
                          JOINT RightHandRing3
                          {
                            OFFSET 0 -3.4 0
                            CHANNELS 6 Xposition Yposition Zposition Zrotation Xrotation Yrotation
                            End Site
                            {
                              OFFSET 0 -2.6 0
                            }
                          }
                        }
                      }
                    }
                    JOINT RightHandPinky
                    {
                      OFFSET 0.749994 -1.75 -1.85
                      CHANNELS 6 Xposition Yposition Zposition Zrotation Xrotation Yrotation
                      JOINT RightHandPinky1
                      {
                        OFFSET 0 -7.15 -0.999998
                        CHANNELS 6 Xposition Yposition Zposition Zrotation Xrotation Yrotation
                        JOINT RightHandPinky2
                        {
                          OFFSET 0 -3 0
                          CHANNELS 6 Xposition Yposition Zposition Zrotation Xrotation Yrotation
                          JOINT RightHandPinky3
                          {
                            OFFSET 0 -2.35 0
                            CHANNELS 6 Xposition Yposition Zposition Zrotation Xrotation Yrotation
                            End Site
                            {
                              OFFSET 0 -2.1 0
                            }
                          }
                        }
                      }
                    }
                  }
                }
              }
            }
          }
        }
      }
    }
  }
  JOINT LeftUpLeg
  {
    OFFSET 10 0 -1.20853e-05
    CHANNELS 6 Xposition Yposition Zposition Zrotation Xrotation Yrotation
    JOINT LeftLeg
    {
      OFFSET 0 -49.4477 -0.999992
      CHANNELS 6 Xposition Yposition Zposition Zrotation Xrotation Yrotation
      JOINT LeftFoot
      {
        OFFSET 0 -45.0523 -2
        CHANNELS 6 Xposition Yposition Zposition Zrotation Xrotation Yrotation
        JOINT LeftToeBase
        {
          OFFSET 0 -7.5 12.5
          CHANNELS 6 Xposition Yposition Zposition Zrotation Xrotation Yrotation
          JOINT LeftFootToe
          {
            OFFSET 0 0 4
            CHANNELS 6 Xposition Yposition Zposition Zrotation Xrotation Yrotation
            End Site
            {
              OFFSET 0 0 0
            }
          }
        }
      }
    }
  }
  JOINT RightUpLeg
  {
    OFFSET -10 0 0
    CHANNELS 6 Xposition Yposition Zposition Zrotation Xrotation Yrotation
    JOINT RightLeg
    {
      OFFSET 0 -49.4477 -0.999999
      CHANNELS 6 Xposition Yposition Zposition Zrotation Xrotation Yrotation
      JOINT RightFoot
      {
        OFFSET 1.29782e-05 -45.0524 -2
        CHANNELS 6 Xposition Yposition Zposition Zrotation Xrotation Yrotation
        JOINT RightToeBase
        {
          OFFSET 0 -7.5 12.5
          CHANNELS 6 Xposition Yposition Zposition Zrotation Xrotation Yrotation
          JOINT RightFootToe
          {
            OFFSET 0 0 4
            CHANNELS 6 Xposition Yposition Zposition Zrotation Xrotation Yrotation
            End Site
            {
              OFFSET 0 0 0
            }
          }
        }
      }
    }
  }
}
MOTION
Frames:	3
Frame Time:	0.0111111
98.9082 96.8637 -16.2266 5.19808 -2.51798 -139.543 0 6.79575 0 2.92232 5.4142 6.52168 -1.42109e-14 6.79575 1.42109e-14 0.273875 5.69689 9.37288 7.10543e-15 6.79575 -1.42109e-14 1.76549 7.08169 2.38199 0 6.79575 0 2.18052 10.1925 -1.08903 -7.10543e-15 14.441 0 -6.11595 1.13134 5.53218 7.10543e-15 9.17427 0 -14.4442 1.70396 13.0892 5 17 0 0.00286998 -0.0103147 -2.07737 6.5 0 -1.42109e-14 -0.0059919 -0.00641135 -2.08217 6.5 -2.84217e-14 0 10.437 -7.03531 -3.65363 0 -37.9535 -2 -97.7246 -51.7076 -63.938 0 -30.0465 2 21.0532 -9.72555 -5.98686 -0.5 -1.5 2.65 -2.05517 1.40268 -0.114675 0 -3.8 3.7 0.3821 13.9918 0.0819419 1.42109e-14 -3 2.7 0.03704 -0.21224 -0.0218418 -1.42109e-14 -1.9 1.6 1.31999e-06 3.71791e-06 1.1734e-07 0 -8.3 1.9 -3.75382 -9.18635 -0.253462 0 -4.5 -1.42109e-14 -3.0363e-06 0.00402114 0.00495441 1.42109e-14 -3.4 1.42109e-14 -4.73055e-05 0.00405481 0.00495871 -0.25 -2.2 0.4 1.31999e-06 3.71791e-06 1.1734e-07 0 -8.3 1 -5.78141 -6.04619 -0.233043 -1.42109e-14 -4.65 7.10543e-15 -0.000122014 1.66421e-06 1.11191e-06 1.42109e-14 -3.3 -7.10543e-15 6.36111e-15 7.95139e-16 -6.36111e-15 -0.5 -2.15 -0.8 1.31999e-06 3.71791e-06 1.1734e-07 -1.42109e-14 -7.75 -0.2 -7.88585 -10.1158 -0.450228 0 -3.8 -7.10543e-15 -8.19317e-05 0.00384319 0.00329878 0 -3.4 -7.10543e-15 9.05357e-06 0.00381661 0.00326885 -0.75 -1.75 -1.85 1.31999e-06 3.71791e-06 1.1734e-07 0 -7.15 -1 -4.21855 -12.3564 -0.107002 0 -3 -1.42109e-14 -0.656042 -0.357081 -0.000853563 0 -2.35 -7.10543e-15 -0.649498 0.143988 0.0608992 -5 17 0 -0.000789064 -0.009839 2.03064 -6.5 0 0 0.00029969 -0.0103885 2.03118 -6.5 0 0 -25.3415 -6.62392 -0.0158925 0 -37.9535 -2 137.972 -75.389 122.496 0 -30.0465 2 1.88013 2.28406 48.9103 0.5 -1.5 2.65 -6.19112 -3.60403 -8.94445 -1.42109e-14 -3.8 3.7 -0.0258653 8.98535 -0.0178791 0 -3 2.7 -0.00319194 -0.00200888 0.00494837 0 -1.9 1.6 -4.08249e-06 -3.2242e-06 -2.88504e-06 0 -8.3 1.9 3.59486 -15.4114 0.349385 0 -4.5 7.10543e-15 0.000184486 3.92546e-07 -0.00451451 1.42109e-14 -3.4 -7.10543e-15 5.5008e-07 -4.67171e-06 0.00557578 0.25 -2.2 0.4 -4.08249e-06 -3.2242e-06 -2.88504e-06 1.42109e-14 -8.3 1 1.16353 -9.0247 -0.00387896 0 -4.65 7.10543e-15 3.8588e-05 -9.10642e-07 -8.61856e-06 -1.42109e-14 -3.3 -3.55271e-15 6.40438e-06 -3.45806e-06 2.55727e-06 0.5 -2.15 -0.8 -4.08249e-06 -3.2242e-06 -2.88504e-06 1.42109e-14 -7.75 -0.2 3.74565 -15.523 0.0771213 -1.42109e-14 -3.8 0 15.4565 -0.00821365 -0.000497037 0 -3.4 0 12.8221 0.00428957 -0.000114156 0.75 -1.75 -1.85 -4.08249e-06 -3.2242e-06 -2.88504e-06 1.42109e-14 -7.15 -1 3.10669 -14.2 -0.0810761 0 -3 -7.10543e-15 0.000124345 -4.90478e-07 -2.86055e-06 1.42109e-14 -2.35 7.10543e-15 1.59028e-15 -5.1684e-15 -9.54166e-15 10 0 -1.42109e-14 -1.83327 -33.0077 -13.0778 -1.42109e-14 -49.4477 -1 -2.49981 34.9256 9.29935 0 -45.0523 -2 -0.905779 -6.95686 -3.92614 0 -7.5 12.5 2.12592e-14 1.41634e-14 -3.18055e-15 -1.42109e-14 0 4 -9.25878 3.88318 0.000979732 -10 1.42109e-14 7.10543e-15 -6.90397 -30.1825 -16.2499 -1.42109e-14 -49.4477 -1 0.340502 26.3876 -1.78624 0 -45.0523 -2 1.84384 -0.0434532 91.5808 0 -7.5 12.5 5.33434e-11 2.50143e-05 -9.39825e-10 7.10543e-15 0 4 -0.0339423 3.33505 0.0056723 
98.8681 97.0252 -16.3808 5.1479 -2.4113 -139.509 1.42109e-14 6.79575 0 2.89604 5.24842 6.53585 0 6.79575 0 0.260093 5.50471 9.37245 7.10543e-15 6.79575 1.42109e-14 1.74127 7.00344 2.39285 0 6.79575 0 2.1579 10.1271 -1.09407 7.10543e-15 14.441 -2.84217e-14 -6.06144 1.2136 5.63261 0 9.17427 0 -14.3316 1.88645 13.3373 5 17 -2.84217e-14 0.00291127 -0.0103161 -1.84805 6.5 -1.42109e-14 0 -0.00595631 -0.00638826 -1.84685 6.5 1.42109e-14 0 10.5308 -5.98984 -3.7249 0 -37.9535 -2 -97.897 -51.3125 -64.122 1.42109e-14 -30.0465 2 21.0248 -9.66551 -5.91853 -0.5 -1.5 2.65 -2.03201 1.33894 -0.0883703 0 -3.8 3.7 0.381838 13.9632 0.0819318 0 -3 2.7 0.03704 -0.21224 -0.0218418 -1.42109e-14 -1.9 1.6 1.31999e-06 3.71791e-06 1.1734e-07 1.42109e-14 -8.3 1.9 -3.73446 -9.15786 -0.251255 -2.84217e-14 -4.5 -1.42109e-14 -3.0363e-06 0.00402114 0.00495441 1.42109e-14 -3.4 0 -4.73055e-05 0.00405481 0.00495871 -0.25 -2.2 0.4 1.31999e-06 3.71791e-06 1.1734e-07 0 -8.3 1 -5.73874 -6.04816 -0.231146 0 -4.65 0 -0.000122014 1.66421e-06 1.11191e-06 1.42109e-14 -3.3 7.10543e-15 3.18055e-15 7.95139e-16 -1.59028e-15 -0.5 -2.15 -0.8 1.31999e-06 3.71791e-06 1.1734e-07 1.42109e-14 -7.75 -0.2 -7.89182 -10.1166 -0.450229 0 -3.8 7.10543e-15 -8.19317e-05 0.00384319 0.00329878 -2.84217e-14 -3.4 2.13163e-14 9.05357e-06 0.00381661 0.00326885 -0.75 -1.75 -1.85 1.31999e-06 3.71791e-06 1.1734e-07 0 -7.15 -1 -4.16884 -12.3683 -0.101537 0 -3 1.42109e-14 -0.700814 -0.356917 -0.000853563 1.42109e-14 -2.35 7.10543e-15 -0.693619 0.143988 0.0608992 -5 17 -1.42109e-14 -0.00080361 -0.0098395 1.94594 -6.5 0 0 0.000309159 -0.0103541 1.94585 -6.5 1.42109e-14 0 -25.4214 -6.27622 0.545047 0 -37.9535 -2 136.12 -75.2785 120.507 0 -30.0465 2 1.8958 2.39317 49.0711 0.5 -1.5 2.65 -6.18731 -3.58255 -8.9799 0 -3.8 3.7 -0.0258742 8.95715 -0.0178777 0 -3 2.7 -0.00319194 -0.00200888 0.00494837 -1.42109e-14 -1.9 1.6 -4.08249e-06 -3.2242e-06 -2.88504e-06 0 -8.3 1.9 3.59906 -15.4215 0.349402 0 -4.5 -2.13163e-14 0.000184486 3.92546e-07 -0.00451451 0 -3.4 2.13163e-14 5.5008e-07 -4.67171e-06 0.00557578 0.25 -2.2 0.4 -4.08249e-06 -3.2242e-06 -2.88504e-06 -1.42109e-14 -8.3 1 1.15992 -9.01173 -0.00387882 0 -4.65 0 3.8588e-05 -9.10642e-07 -8.61856e-06 0 -3.3 0 6.40438e-06 -3.45806e-06 2.55727e-06 0.5 -2.15 -0.8 -4.08249e-06 -3.2242e-06 -2.88504e-06 0 -7.75 -0.2 3.74595 -15.5243 0.0771218 -1.42109e-14 -3.8 0 15.4911 -0.00821365 -0.000497037 0 -3.4 0 12.8464 0.00428957 -0.000114156 0.75 -1.75 -1.85 -4.08249e-06 -3.2242e-06 -2.88504e-06 0 -7.15 -1 3.10173 -14.1901 -0.0810725 -1.42109e-14 -3 -7.10543e-15 0.000124345 -4.90478e-07 -2.86055e-06 0 -2.35 0 2.78299e-15 -1.59028e-15 -0 10 -1.42109e-14 7.10543e-15 -1.72958 -32.5567 -13.0302 0 -49.4477 -1 -2.40992 34.4498 9.12043 0 -45.0523 -2 -0.919654 -6.81963 -3.84259 0 -7.5 12.5 2.12593e-14 1.41632e-14 -3.18055e-15 0 0 4 -9.1048 3.80327 0.000875059 -10 -1.42109e-14 -7.10543e-15 -6.69364 -29.6633 -16.0984 -1.42109e-14 -49.4477 -1 0.330885 25.7483 -1.78458 -1.42109e-14 -45.0523 -2 1.83763 0.170079 91.4203 3.55271e-15 -7.5 12.5 5.33434e-11 2.50143e-05 -9.39832e-10 3.55271e-15 1.73472e-18 4 -0.029218 3.10791 0.00552732 
98.8338 97.1855 -16.5397 5.09231 -2.29953 -139.456 0 6.79575 7.10543e-15 2.87075 5.07512 6.54629 0 6.79575 -1.42109e-14 0.24871 5.31256 9.37547 7.10543e-15 6.79575 0 1.71705 6.9236 2.40359 0 6.79575 0 2.13722 10.0603 -1.10146 7.10543e-15 14.441 1.42109e-14 -6.00303 1.3067 5.73379 -7.10543e-15 9.17427 0 -14.2124 2.0951 13.5889 5 17 2.84217e-14 0.00295234 -0.0103173 -1.61993 6.5 -2.84217e-14 1.42109e-14 -0.00592116 -0.00636522 -1.61772 6.5 0 1.42109e-14 10.6367 -4.95901 -3.79991 -3.55271e-15 -37.9535 -2 -98.061 -50.9481 -64.2764 0 -30.0465 2 21.0255 -9.57956 -5.81684 -0.5 -1.5 2.65 -1.99439 1.23329 -0.05276 0 -3.8 3.7 0.38081 13.9249 0.0819182 0 -3 2.7 0.03704 -0.21224 -0.0218418 0 -1.9 1.6 1.31999e-06 3.71791e-06 1.1734e-07 0 -8.3 1.9 -3.72269 -9.13277 -0.249885 0 -4.5 7.10543e-15 -3.0363e-06 0.00402114 0.00495441 1.42109e-14 -3.4 0 -4.73055e-05 0.00405481 0.00495871 -0.25 -2.2 0.4 1.31999e-06 3.71791e-06 1.1734e-07 1.42109e-14 -8.3 1 -5.7001 -6.06103 -0.229925 -1.42109e-14 -4.65 7.10543e-15 -0.000122014 1.66421e-06 1.11191e-06 0 -3.3 7.10543e-15 9.54166e-15 -9.54166e-15 -7.15625e-15 -0.5 -2.15 -0.8 1.31999e-06 3.71791e-06 1.1734e-07 2.84217e-14 -7.75 -0.2 -7.90544 -10.138 -0.450259 1.42109e-14 -3.8 -7.10543e-15 -8.19317e-05 0.00384319 0.00329878 -1.42109e-14 -3.4 7.10543e-15 9.05357e-06 0.00381661 0.00326885 -0.75 -1.75 -1.85 1.31999e-06 3.71791e-06 1.1734e-07 0 -7.15 -1 -4.12959 -12.3708 -0.0972333 0 -3 0 -0.737463 -0.356257 -0.000853563 0 -2.35 7.10543e-15 -0.729699 0.143988 0.0608992 -5 17 -1.42109e-14 -0.000817258 -0.00983995 1.86647 -6.5 -1.42109e-14 2.84217e-14 0.000319159 -0.0103204 1.86655 -6.5 -1.42109e-14 0 -25.4345 -5.95852 1.06487 0 -37.9535 -2 134.313 -75.1628 118.574 0 -30.0465 2 1.88568 2.54275 49.1668 0.5 -1.5 2.65 -6.18837 -3.56699 -8.99687 0 -3.8 3.7 -0.0258829 8.92947 -0.0178763 1.42109e-14 -3 2.7 -0.00319194 -0.00200888 0.00494837 0 -1.9 1.6 -4.08249e-06 -3.2242e-06 -2.88504e-06 0 -8.3 1.9 3.59676 -15.4151 0.349391 0 -4.5 0 0.000184486 3.92546e-07 -0.00451451 -1.42109e-14 -3.4 2.13163e-14 5.5008e-07 -4.67171e-06 0.00557578 0.25 -2.2 0.4 -4.08249e-06 -3.2242e-06 -2.88504e-06 -1.42109e-14 -8.3 1 1.15405 -8.98912 -0.00387858 0 -4.65 1.06581e-14 3.8588e-05 -9.10642e-07 -8.61856e-06 0 -3.3 1.06581e-14 6.40438e-06 -3.45806e-06 2.55727e-06 0.5 -2.15 -0.8 -4.08249e-06 -3.2242e-06 -2.88504e-06 0 -7.75 -0.2 3.74208 -15.5164 0.0771189 0 -3.8 -1.42109e-14 15.5682 -0.00821365 -0.000497037 7.10543e-15 -3.4 7.10543e-15 12.9002 0.00428957 -0.000114156 0.75 -1.75 -1.85 -4.08249e-06 -3.2242e-06 -2.88504e-06 -1.42109e-14 -7.15 -1 3.09463 -14.1752 -0.0810672 0 -3 -7.10543e-15 0.000124345 -4.90478e-07 -2.86055e-06 0 -2.35 0 -7.95139e-16 -3.57812e-15 6.36111e-15 10 0 7.10543e-15 -1.63335 -32.1035 -13.0024 0 -49.4477 -1 -2.32164 33.975 8.94177 0 -45.0523 -2 -0.937801 -6.6793 -3.75339 -1.42109e-14 -7.5 12.5 2.12594e-14 1.41638e-14 3.18055e-15 0 -1.11022e-16 4 -8.94275 3.72074 0.000748873 -10 1.42109e-14 1.42109e-14 -6.47826 -29.1343 -15.9235 0 -49.4477 -1 0.321827 25.0995 -1.7842 0 -45.0523 -2 1.83309 0.391025 91.2174 -3.55271e-15 -7.5 12.5 5.33434e-11 2.50143e-05 -9.39828e-10 7.10543e-15 -3.46945e-18 4 -0.0332279 2.88368 0.00535774 
